<svg width="106" height="88" fill="none" xmlns="http://www.w3.org/2000/svg"><path d="M.33 45.825l-.18-.054-.003.013.183.04zm-1.473 6.681l.182.044.001-.003-.183-.04zm17.86-.65l.182.044v-.001l-.183-.043zm1.454-6.184l-.182-.043.182.043zm-28.526 7.719l.182.043v-.002l-.182-.041zm1.707-7.557l-.182-.044v.003l.182.041zm35.837 0l-.183-.043v.002l.183.041zm-1.71 7.554l.182.044v-.002l-.183-.042zM.146 45.784l-1.473 6.682.366.08 1.474-6.68-.367-.082zm-1.473 6.679c-.23.967-.333 1.93-.05 2.66.145.373.39.684.762.9.368.212.85.324 1.457.324v-.375c-.564 0-.975-.104-1.27-.275a1.356 1.356 0 01-.599-.71c-.238-.614-.163-1.478.065-2.437l-.365-.087zm2.17 3.884h10.448v-.375H.843v.375zm10.448 0c1.66 0 2.866-.236 3.76-.932.893-.696 1.438-1.823 1.847-3.515l-.365-.088c-.403 1.666-.922 2.69-1.713 3.307-.792.617-1.892.853-3.529.853v.375zm5.607-4.448l1.454-6.184-.365-.086-1.454 6.184.365.086zm1.454-6.183c.236-.986.175-1.843-.26-2.458-.44-.621-1.222-.945-2.307-.945v.375c1.017 0 1.658.302 2 .786.347.49.427 1.22.203 2.155l.364.087zm-2.568-3.403h-8.77v.375h8.77v-.375zm-8.77 0c-1.583 0-3.066.092-4.268.568-1.217.482-2.14 1.356-2.596 2.89l.36.107c.421-1.418 1.259-2.206 2.374-2.648 1.13-.448 2.55-.542 4.13-.542v-.375zm4.388 23.115H-1.63v.375h13.034v-.375zm-13.033 0c-4.56 0-6.974-1.744-8.118-4.08-1.154-2.358-1.037-5.363-.425-7.914l-.364-.087c-.622 2.588-.757 5.696.452 8.166 1.22 2.491 3.785 4.29 8.455 4.29v-.375zm-8.542-11.996l1.707-7.556-.366-.083-1.707 7.556.366.083zm1.707-7.554c1.037-4.33 2.593-7.493 4.944-9.576 2.348-2.079 5.513-3.103 9.816-3.103v-.375c-4.364 0-7.628 1.04-10.065 3.198-2.432 2.154-4.014 5.403-5.06 9.769l.365.087zm14.76-12.679h12.361v-.375H6.296v.375zm12.361 0c2.282 0 4.01.475 5.303 1.254 1.293.778 2.162 1.867 2.715 3.118 1.109 2.509.943 5.667.332 8.22l.365.087c.62-2.59.802-5.842-.354-8.459-.58-1.313-1.498-2.465-2.864-3.287-1.364-.822-3.163-1.308-5.497-1.308v.375zm8.35 12.594l-1.71 7.554.365.083 1.71-7.554-.365-.083zm-1.71 7.552c-1.038 4.337-2.378 7.348-4.51 9.279-2.127 1.926-5.072 2.804-9.383 2.804v.375c4.359 0 7.411-.888 9.634-2.901 2.218-2.009 3.58-5.112 4.624-9.47l-.365-.087z" fill="#000"/><path fill-rule="evenodd" clip-rule="evenodd" d="M-11 0v88h99.3L106 0H-11z" fill="#fff"/><path fill-rule="evenodd" clip-rule="evenodd" d="M55.992 24.728c0-3.113-2.553-5.642-5.694-5.642-3.137 0-5.693 2.53-5.693 5.642 0 3.11 2.556 5.64 5.693 5.64 3.141 0 5.694-2.53 5.694-5.64zM33.041 41.612c-.139.623.258 1.126.882 1.126h7.771l-2.438 10.89c-1.23 5.14.17 12.225 9.4 12.225l11.588.038c.6 0 1.192-.48 1.325-1.072l1.361-6.094c.134-.592-.263-1.11-.86-1.11l-10.616.002c-2.557 0-2.666-1.884-2.166-3.988l2.473-10.891h13.66c.626 0 1.248-.503 1.385-1.126l1.625-7.266c.139-.62-.256-1.12-.882-1.12H36.051c-.626 0-1.245.5-1.384 1.12l-1.626 7.266z" fill="#C8102E"/></svg>
